<svg width="70" height="70" viewBox="0 0 70 70" fill="none" xmlns="http://www.w3.org/2000/svg">
  <path fill-rule="evenodd" clip-rule="evenodd" d="M58.2151 59.8409C55.3209 54.0163 50.2947 49.4341 44.1646 47.1097C48.2996 44.1646 51 39.346 51 33.8777C51 31.4304 50.443 29.1097 49.4641 27.0253C51.9283 23.346 51.0338 18.1815 49.4979 16.9578C48.0633 15.8101 43.3966 15.9705 40.308 18.6287C38.5696 17.9958 36.7046 17.6329 34.7553 17.6329C32.8059 17.6329 30.9409 17.9958 29.2025 18.6287C26.1139 15.9705 21.4388 15.8101 20.0127 16.9578C18.4768 18.1815 17.5823 23.346 20.038 27.0253C19.0675 29.1097 18.5105 31.4304 18.5105 33.8777C18.5105 39.422 21.2869 44.308 25.5148 47.2363C19.5254 49.5992 14.628 54.1194 11.7883 59.844C17.8647 65.5236 26.0263 69 35 69C43.9753 69 52.1383 65.5223 58.2151 59.8409Z" fill="#D9D9D9"/>
  <path d="M31.9789 35.0929C32.6221 35.0929 33.1434 34.3599 33.1434 33.4557C33.1434 32.5516 32.6221 31.8186 31.9789 31.8186C31.3357 31.8186 30.8143 32.5516 30.8143 33.4557C30.8143 34.3599 31.3357 35.0929 31.9789 35.0929Z" fill="#3F3B3A"/>
  <path d="M38.0295 35.0929C38.6727 35.0929 39.1941 34.3599 39.1941 33.4557C39.1941 32.5516 38.6727 31.8186 38.0295 31.8186C37.3864 31.8186 36.865 32.5516 36.865 33.4557C36.865 34.3599 37.3864 35.0929 38.0295 35.0929Z" fill="#3F3B3A"/>
  <path d="M33.0675 37.2194H33.0169C32.7806 37.211 32.6034 37.0085 32.6118 36.7806C32.6202 36.5443 32.8228 36.3587 33.0506 36.3755C33.0506 36.3755 33.7342 36.3924 34.173 35.9705C34.4346 35.7173 34.5696 35.3291 34.5696 34.8312C34.5696 34.595 34.7553 34.4093 34.9915 34.4093C35.2278 34.4093 35.4135 34.595 35.4135 34.8312C35.4135 35.3291 35.5485 35.7089 35.8101 35.9705C36.2489 36.3924 36.924 36.3755 36.9325 36.3755C37.1603 36.3755 37.3629 36.5528 37.3713 36.7806C37.3797 37.0169 37.2025 37.211 36.9662 37.2194C36.924 37.2194 35.9283 37.2616 35.2278 36.5865C35.135 36.5021 35.0591 36.4093 34.9831 36.308C34.9072 36.4093 34.8312 36.5021 34.7384 36.5865C34.1139 37.1772 33.27 37.2194 33.0506 37.2194H33.0675Z" fill="#3F3B3A"/>
</svg>
