<svg width="14" height="14" viewBox="0 0 14 14" fill-rule="evenodd" clip-rule="evenodd" xmlns="http://www.w3.org/2000/svg">
<path d="M8.30988 1.64284C8.30988 0.919607 7.72359 0.333313 7.00036 0.333313C6.27713 0.333313 5.69083 0.919607 5.69083 1.64284V5.69045L1.64302 5.69045C0.919789 5.69045 0.333496 6.27674 0.333496 6.99997C0.333496 7.7232 0.919789 8.3095 1.64302 8.3095L5.69083 8.3095V12.3571C5.69083 13.0804 6.27713 13.6666 7.00036 13.6666C7.72359 13.6666 8.30988 13.0804 8.30988 12.3571V8.3095L12.3573 8.3095C13.0805 8.3095 13.6668 7.72321 13.6668 6.99998C13.6668 6.27675 13.0805 5.69045 12.3573 5.69045L8.30988 5.69045V1.64284Z"/>
</svg>
