<svg width="120" height="120" viewBox="0 0 120 120" fill="none" xmlns="http://www.w3.org/2000/svg">
<path d="M116.198 97.2237C117.541 99.1623 117.805 101.629 116.982 104.56C115.202 110.888 106.615 114.568 91.4605 115.5C88.8098 115.66 86.1802 115.724 83.714 115.724C76.4002 115.724 70.5359 115.181 69.9095 115.12C68.2422 115.072 65.8184 113.974 65.8184 111.11C65.8184 109.966 66.1603 109.089 66.6445 108.422C66.6535 108.409 66.6445 108.391 66.6263 108.394C65.7306 108.491 64.8077 108.564 63.8545 108.607C63.0466 108.646 62.2598 108.661 61.5033 108.661C58.4804 108.661 55.9295 108.4 54.4225 108.2C54.4134 108.2 54.4044 108.206 54.4013 108.215C54.365 108.352 54.3287 108.488 54.2833 108.631C53.7023 110.539 50.1892 112.099 43.8346 113.267C40.7995 113.822 36.8325 114.289 33.1831 114.289C31.6127 114.289 30.1027 114.204 28.7501 114.001C26.1538 113.613 23.0612 112.575 23.0612 109.835C23.0612 107.666 23.7966 105.937 25.2521 104.693C26.1477 103.928 27.228 103.443 28.3234 103.14C28.3355 103.137 28.3416 103.128 28.3386 103.118C26.2688 94.6358 27.0313 72.4857 27.2462 67.2736C27.2462 67.2645 27.2401 67.2554 27.2341 67.2554C25.8724 66.8094 24.1718 66.1692 22.3985 65.2925C18.7008 63.463 15.9108 61.1877 14.1376 58.5907C14.1316 58.5816 14.1225 58.5786 14.1134 58.5846C13.1451 59.1004 11.8167 60.4322 11.0965 61.3303C10.8272 61.667 10.4338 61.8399 10.0344 61.8399C9.73481 61.8399 9.43524 61.7429 9.18106 61.5396C8.59704 61.0693 8.50324 60.2077 8.97529 59.6222C9.34446 59.158 11.0057 57.1648 12.8122 56.1909C12.8213 56.1879 12.8243 56.1758 12.8213 56.1697C12.6186 55.6812 12.4491 55.1867 12.3129 54.6801C11.8621 53.0084 11.6382 51.2913 11.5746 49.5923C11.5746 49.5802 11.5625 49.5711 11.5504 49.5741C9.0691 50.3963 6.23072 52.3228 5.19281 53.1207C4.94468 53.3118 4.65419 53.4059 4.36369 53.4059C3.95519 53.4059 3.55273 53.2208 3.28342 52.8719C2.82347 52.2742 2.93543 51.4187 3.53155 50.9575C3.71916 50.8119 7.85568 47.6476 11.5988 46.7193C11.6079 46.7193 11.6139 46.7102 11.6139 46.7011C11.9801 40.6789 14.0105 35.3545 14.7095 33.6798C14.7095 33.6737 14.7095 33.6707 14.7095 33.6646C13.0997 29.0046 12.3069 20.0851 12.2706 19.6938L12.2222 19.1264C12.2222 19.1264 12.2222 19.1173 12.2252 19.1113L12.5974 18.6835C13.5718 17.5488 15.9441 16.1715 25.2763 17.2819C29.5005 17.7855 33.395 18.5864 34.4601 18.817H34.4692L40.5877 17.6459C40.5877 17.6459 40.5998 17.6399 40.6029 17.6338L44.6758 9.14509C44.6758 9.14509 44.691 9.13295 44.7 9.13598L45.7622 9.406C46.2009 9.51825 56.6194 12.2942 64.1087 25.4884C70.7689 37.2203 67.6793 52.1529 66.7655 55.8269C66.7655 55.8329 66.7685 55.839 66.7716 55.8451C80.4097 69.0605 84.404 85.8437 85.1968 89.8939C85.1998 89.903 85.2058 89.9091 85.2119 89.9091C88.4769 90.7616 92.7254 91.1074 96.8407 91.4412C105.202 92.1177 113.099 92.7579 116.198 97.2237ZM114.361 103.816C114.96 101.683 114.83 100.036 113.962 98.7831C111.598 95.3761 103.985 94.7572 96.6229 94.1625C92.0143 93.7894 87.2514 93.401 83.6172 92.2967L82.8093 92.051C82.8093 92.051 82.7972 92.0419 82.7972 92.0358L82.667 91.2015C82.6368 91.0073 79.4111 71.4845 64.3084 57.2619L63.7123 56.7006C63.7123 56.7006 63.7032 56.6854 63.7062 56.6794L63.9332 55.8875C63.9816 55.7207 68.6567 39.0163 61.7424 26.8415C56.2018 17.0786 48.8547 13.4653 46.1495 12.4156C46.1404 12.4125 46.1283 12.4156 46.1253 12.4247L42.4608 20.0609C42.4608 20.0609 42.4517 20.07 42.4457 20.07L34.4268 21.6021L34.1515 21.5414C34.1091 21.5323 29.6609 20.5523 24.9373 19.9911C18.3316 19.2084 15.9108 19.7969 15.0666 20.1944C15.0605 20.1944 15.0575 20.2035 15.0575 20.2126C15.2935 22.5638 16.1075 29.7904 17.445 33.2156L17.6538 33.7465V33.7617L17.4178 34.2805C17.3694 34.3867 12.5671 45.1447 14.9425 53.9701C17.2271 62.4649 30.6141 65.3774 30.7503 65.4047C31.4856 65.5594 31.9576 66.2845 31.8033 67.0218C31.649 67.759 30.9288 68.2323 30.1935 68.0775C30.1723 68.0745 30.0845 68.0563 29.9423 68.0229C29.8092 71.5664 29.5429 80.1007 29.7154 88.107C29.7184 88.1252 29.7456 88.1312 29.7517 88.113C31.0861 85.1156 33.3466 82.8129 35.4496 81.1746C35.4557 81.1716 35.4587 81.1655 35.4557 81.1595C35.141 78.6444 36.5541 76.1567 36.7205 75.8745C37.1048 75.2253 37.94 75.0099 38.5876 75.3952C39.2321 75.7805 39.4469 76.6148 39.0657 77.261C38.872 77.5977 38.5059 78.3592 38.294 79.2087C38.291 79.2269 38.3092 79.2421 38.3243 79.233C39.5075 78.5413 40.3487 78.1742 40.4576 78.1256C41.1506 77.8313 41.9494 78.1529 42.246 78.8477C42.5395 79.5394 42.2187 80.3403 41.5288 80.6376C41.4471 80.674 33.2527 84.2692 31.5945 91.1074C30.608 95.1637 32.0998 99.6568 36.0276 104.462C36.5057 105.051 36.4694 105.949 35.8823 106.434C35.6281 106.644 35.3225 106.744 35.0169 106.744C34.6235 106.744 34.2332 106.577 33.9639 106.246C33.7551 105.991 33.5553 105.737 33.3587 105.479C33.3587 105.476 33.3496 105.473 33.3466 105.473C31.7761 105.321 28.6744 105.351 27.0162 106.774C26.1871 107.484 25.7846 108.485 25.7846 109.835C25.7846 110.218 26.4594 110.651 27.5518 110.964C30.4023 111.786 35.9459 111.747 41.671 110.864C47.723 109.929 51.1998 108.491 51.6901 107.794C51.6901 107.791 51.6901 107.788 51.6901 107.784C51.7808 107.487 51.8444 107.217 51.8898 106.962C51.8928 106.962 51.8928 106.959 51.8898 106.956C51.8474 106.777 51.8383 106.583 51.8716 106.389C51.8958 106.265 51.9412 106.152 51.9927 106.043C52.0048 105.512 51.9261 105.121 51.8293 104.845C51.684 104.432 51.7566 103.977 52.0169 103.616L52.035 103.592C52.6644 102.718 54.017 102.897 54.3892 103.91C54.5466 104.341 54.6646 104.857 54.707 105.464C54.707 105.473 54.713 105.482 54.7221 105.482C59.0069 106.043 73.0716 107.251 79.5261 100.027L79.8196 99.6993C79.8196 99.6993 79.8256 99.6932 79.8287 99.6932L80.2584 99.6022C80.8575 99.4748 94.7044 96.6321 105.528 102.551C105.534 102.551 105.543 102.551 105.55 102.548C105.813 102.293 105.898 102.108 105.916 102.032C105.916 102.029 105.916 102.026 105.913 102.023C105.695 101.383 105.979 100.667 106.6 100.358C107.271 100.024 108.088 100.3 108.424 100.977C108.709 101.556 108.802 102.612 108.128 103.683C107.765 104.253 107.208 104.781 106.469 105.269C106.427 105.303 106.385 105.327 106.339 105.354C101.54 108.4 89.2516 109.772 69.6856 109.426H69.6795C69.3225 109.535 68.5387 109.914 68.5387 111.11C68.5387 112.181 69.4647 112.372 70.0184 112.393L70.1213 112.399C81.4355 113.534 111.435 114.204 114.358 103.816H114.361ZM102.508 104.144C102.527 104.138 102.527 104.114 102.508 104.107C93.848 100.276 83.4417 101.808 81.2448 102.196C81.2388 102.196 81.2357 102.199 81.2327 102.202C79.396 104.135 77.0236 105.637 74.1398 106.707C74.1186 106.714 74.1247 106.744 74.1459 106.744C90.7555 106.811 98.7078 105.442 102.508 104.144ZM31.0589 102.712C31.186 102.703 31.3101 102.7 31.4311 102.694C31.1981 102.311 30.9802 101.929 30.7745 101.547C30.8562 101.96 30.9439 102.345 31.0377 102.697C31.0377 102.706 31.0498 102.712 31.0589 102.712Z" fill="#C8C1BA"/>
<path d="M31.4311 102.694C31.31 102.7 31.1859 102.703 31.0589 102.712C31.0498 102.712 31.0407 102.706 31.0377 102.697C30.9439 102.345 30.8561 101.959 30.7744 101.547C30.9802 101.929 31.1981 102.311 31.4311 102.694Z" fill="#CECECE"/>
<path d="M113.962 98.783C114.83 100.036 114.96 101.683 114.361 103.816C111.438 114.204 81.4385 113.534 70.1243 112.399L70.0215 112.393C69.4677 112.372 68.5418 112.18 68.5418 111.11C68.5418 109.914 69.3255 109.535 69.6825 109.426H69.6886C89.2546 109.772 101.543 108.4 106.342 105.354C106.388 105.327 106.43 105.303 106.472 105.269C107.211 104.781 107.768 104.253 108.131 103.683C108.805 102.612 108.712 101.556 108.427 100.976C108.091 100.3 107.274 100.024 106.603 100.358C105.982 100.667 105.698 101.383 105.916 102.023C105.919 102.026 105.919 102.029 105.919 102.032C105.901 102.108 105.816 102.293 105.553 102.548C105.546 102.551 105.537 102.551 105.531 102.551C94.7074 96.632 80.8605 99.4747 80.2614 99.6022L79.8317 99.6932C79.8317 99.6932 79.8256 99.6962 79.8226 99.6992L79.5291 100.027C73.0747 107.25 59.0099 106.043 54.7251 105.482C54.716 105.482 54.71 105.473 54.71 105.464C54.6676 104.857 54.5496 104.341 54.3923 103.91C54.0201 102.897 52.6675 102.718 52.038 103.592L52.0199 103.616C51.7597 103.977 51.687 104.432 51.8323 104.845C51.9291 105.121 52.0078 105.512 51.9957 106.043C51.9442 106.152 51.8988 106.264 51.8746 106.389C51.8414 106.583 51.8504 106.777 51.8928 106.956C51.8958 106.959 51.8958 106.962 51.8928 106.962C51.8474 107.217 51.7839 107.487 51.6931 107.784C51.6931 107.787 51.6931 107.791 51.6931 107.794C51.2029 108.491 47.726 109.929 41.6741 110.864C35.9489 111.747 30.4053 111.786 27.5548 110.964C26.4624 110.651 25.7877 110.218 25.7877 109.835C25.7877 108.485 26.1901 107.484 27.0192 106.774C28.6775 105.351 31.7791 105.321 33.3496 105.473C33.3526 105.473 33.3587 105.476 33.3617 105.479C33.5584 105.737 33.7581 105.991 33.9669 106.246C34.2362 106.577 34.6265 106.744 35.0199 106.744C35.3255 106.744 35.6312 106.644 35.8854 106.434C36.4724 105.949 36.5087 105.051 36.0306 104.462C32.1029 99.6568 30.6111 95.1637 31.5975 91.1074C33.2558 84.2691 41.4501 80.674 41.5318 80.6376C42.2218 80.3403 42.5425 79.5394 42.249 78.8476C41.9524 78.1529 41.1536 77.8313 40.4606 78.1256C40.3517 78.1741 39.5105 78.5412 38.3273 79.2329C38.3122 79.242 38.294 79.2269 38.2971 79.2087C38.5089 78.3592 38.875 77.5977 39.0687 77.2609C39.45 76.6147 39.2351 75.7804 38.5906 75.3951C37.943 75.0098 37.1079 75.2252 36.7236 75.8745C36.5571 76.1566 35.144 78.6444 35.4587 81.1594C35.4617 81.1655 35.4587 81.1716 35.4526 81.1746C33.3496 82.8129 31.0892 85.1156 29.7547 88.113C29.7487 88.1312 29.7214 88.1251 29.7184 88.1069C29.5459 80.1006 29.8122 71.5664 29.9454 68.0229C30.0876 68.0562 30.1753 68.0744 30.1965 68.0775C30.9318 68.2322 31.652 67.7589 31.8063 67.0217C31.9607 66.2845 31.4886 65.5594 30.7533 65.4047C30.6171 65.3774 17.2302 62.4649 14.9456 53.9701C12.5702 45.1446 17.3724 34.3866 17.4208 34.2804L17.6568 33.7617V33.7465L17.448 33.2156C16.1106 29.7904 15.2966 22.5637 15.0605 20.2125C15.0605 20.2034 15.0636 20.1973 15.0696 20.1943C15.9139 19.7969 18.3347 19.2083 24.9404 19.991C29.6639 20.5523 34.1121 21.5322 34.1545 21.5413L34.4299 21.602L42.4487 20.0699C42.4487 20.0699 42.4608 20.0638 42.4638 20.0608L46.1283 12.4246C46.1283 12.4246 46.1434 12.4125 46.1525 12.4155C48.8577 13.4652 56.2048 17.0785 61.7454 26.8415C68.6598 39.0163 63.9846 55.7206 63.9362 55.8875L63.7093 56.6793C63.7093 56.6793 63.7093 56.6945 63.7153 56.7006L64.3114 57.2618C79.4141 71.4845 82.6398 91.0073 82.6701 91.2014L82.8002 92.0358C82.8002 92.0358 82.8062 92.0479 82.8123 92.0509L83.6202 92.2967C87.2544 93.401 92.0173 93.7893 96.6259 94.1625C103.988 94.7571 111.601 95.376 113.965 98.783H113.962Z" fill="#F7F7F7"/>
<mask id="mask0_832_3623" style="mask-type:alpha" maskUnits="userSpaceOnUse" x="14" y="12" width="101" height="102">
<path d="M113.962 98.783C114.83 100.036 114.96 101.683 114.361 103.816C111.438 114.204 81.4385 113.534 70.1243 112.399L70.0215 112.393C69.4677 112.372 68.5418 112.181 68.5418 111.11C68.5418 109.914 69.3255 109.535 69.6825 109.426H69.6886C89.2546 109.772 101.543 108.4 106.342 105.354C106.388 105.327 106.43 105.303 106.472 105.269C107.211 104.781 107.768 104.253 108.131 103.683C108.805 102.612 108.712 101.556 108.427 100.977C108.091 100.3 107.274 100.024 106.603 100.358C105.982 100.667 105.698 101.383 105.916 102.023C105.919 102.026 105.919 102.029 105.919 102.032C105.901 102.108 105.816 102.293 105.553 102.548C105.546 102.551 105.537 102.551 105.531 102.551C94.7074 96.632 80.8605 99.4747 80.2614 99.6022L79.8317 99.6932C79.8317 99.6932 79.8256 99.6962 79.8226 99.6993L79.5291 100.027C73.0747 107.25 59.0099 106.043 54.7251 105.482C54.716 105.482 54.71 105.473 54.71 105.464C54.6676 104.857 54.5496 104.341 54.3923 103.91C54.0201 102.897 52.6675 102.718 52.038 103.592L52.0199 103.616C51.7597 103.977 51.687 104.432 51.8323 104.845C51.9291 105.121 52.0078 105.512 51.9957 106.043C51.9442 106.152 51.8988 106.264 51.8746 106.389C51.8414 106.583 51.8504 106.777 51.8928 106.956C51.8958 106.959 51.8958 106.962 51.8928 106.962C51.8474 107.217 51.7839 107.487 51.6931 107.784C51.6931 107.787 51.6931 107.791 51.6931 107.794C51.2029 108.491 47.726 109.929 41.6741 110.864C35.9489 111.747 30.4053 111.786 27.5548 110.964C26.4624 110.651 25.7877 110.218 25.7877 109.835C25.7877 108.485 26.1901 107.484 27.0192 106.774C28.6775 105.351 31.7791 105.321 33.3496 105.473C33.3526 105.473 33.3587 105.476 33.3617 105.479C33.5584 105.737 33.7581 105.991 33.9669 106.246C34.2362 106.577 34.6265 106.744 35.0199 106.744C35.3255 106.744 35.6312 106.644 35.8854 106.434C36.4724 105.949 36.5087 105.051 36.0306 104.462C32.1029 99.6568 30.6111 95.1637 31.5975 91.1074C33.2558 84.2691 41.4501 80.674 41.5318 80.6376C42.2218 80.3403 42.5425 79.5394 42.249 78.8476C41.9524 78.1529 41.1536 77.8313 40.4606 78.1256C40.3517 78.1741 39.5105 78.5412 38.3273 79.2329C38.3122 79.242 38.294 79.2269 38.2971 79.2087C38.5089 78.3592 38.875 77.5977 39.0687 77.2609C39.45 76.6147 39.2351 75.7804 38.5906 75.3951C37.943 75.0098 37.1079 75.2252 36.7236 75.8745C36.5571 76.1566 35.144 78.6444 35.4587 81.1594C35.4617 81.1655 35.4587 81.1716 35.4526 81.1746C33.3496 82.8129 31.0892 85.1156 29.7547 88.113C29.7487 88.1312 29.7214 88.1251 29.7184 88.1069C29.5459 80.1006 29.8122 71.5664 29.9454 68.0229C30.0876 68.0562 30.1753 68.0745 30.1965 68.0775C30.9318 68.2322 31.652 67.7589 31.8063 67.0217C31.9607 66.2845 31.4886 65.5594 30.7533 65.4047C30.6171 65.3774 17.2302 62.4649 14.9456 53.9701C12.5702 45.1446 17.3724 34.3866 17.4208 34.2805L17.6568 33.7617V33.7465L17.448 33.2156C16.1106 29.7904 15.2966 22.5637 15.0605 20.2125C15.0605 20.2034 15.0636 20.1973 15.0696 20.1943C15.9139 19.7969 18.3347 19.2083 24.9404 19.991C29.6639 20.5523 34.1121 21.5322 34.1545 21.5413L34.4299 21.602L42.4487 20.0699C42.4487 20.0699 42.4608 20.0638 42.4638 20.0608L46.1283 12.4246C46.1283 12.4246 46.1434 12.4125 46.1525 12.4155C48.8577 13.4652 56.2048 17.0785 61.7454 26.8415C68.6598 39.0163 63.9846 55.7206 63.9362 55.8875L63.7093 56.6793C63.7093 56.6793 63.7093 56.6945 63.7153 56.7006L64.3114 57.2618C79.4141 71.4845 82.6398 91.0073 82.6701 91.2015L82.8002 92.0358C82.8002 92.0358 82.8062 92.0479 82.8123 92.0509L83.6202 92.2967C87.2544 93.401 92.0173 93.7893 96.6259 94.1625C103.988 94.7571 111.601 95.376 113.965 98.783H113.962Z" fill="#F7F7F7"/>
</mask>
<g mask="url(#mask0_832_3623)">
<path d="M118.377 89.6538C113.577 62.4538 63.3772 33.6538 38.8772 22.6538C32.2105 8.82049 18.8772 -19.2462 18.8772 -20.8462C18.8772 -22.4462 95.2105 -11.1795 133.377 -5.34618C130.377 37.6538 123.177 116.854 118.377 89.6538Z" fill="#D9D9D9"/>
<path d="M64.1263 116.4C57.4063 88.7999 73.1263 77.4999 81.8263 75.2999L127.126 99.2999C108.926 116.5 70.8463 144 64.1263 116.4Z" fill="#D9D9D9"/>
</g>
<path d="M42.5304 40.1116C42.1128 40.1116 41.7739 39.7718 41.7739 39.3531V4.95841C41.7739 4.53974 42.1128 4.19995 42.5304 4.19995C42.948 4.19995 43.2869 4.53974 43.2869 4.95841V39.3531C43.2869 39.7718 42.948 40.1116 42.5304 40.1116Z" fill="#938F8D"/>
<path d="M57.143 40.1116C56.7254 40.1116 56.3865 39.7718 56.3865 39.3531V4.95841C56.3865 4.53974 56.7254 4.19995 57.143 4.19995C57.5606 4.19995 57.8995 4.53974 57.8995 4.95841V39.3531C57.8995 39.7718 57.5606 40.1116 57.143 40.1116Z" fill="#938F8D"/>
<path d="M49.8593 35.937C49.4417 35.937 49.1028 35.5972 49.1028 35.1786V9.13602C49.1028 8.71735 49.4417 8.37756 49.8593 8.37756C50.2769 8.37756 50.6158 8.71735 50.6158 9.13602V35.1786C50.6158 35.5972 50.2769 35.937 49.8593 35.937Z" fill="#938F8D"/>
</svg>
