<svg width="54" height="51" viewBox="0 0 54 51" xmlns="http://www.w3.org/2000/svg">
<path d="M2.82506 16.7297H19.451V32.2302H2.82506C1.4512 32.2302 0.333496 30.9998 0.333496 29.4859V19.474C0.333496 17.9601 1.4512 16.7297 2.82506 16.7297Z"/>
<path d="M53.6671 19.474V29.4859C53.6671 30.9998 52.5493 32.2302 51.1755 32.2302H34.5449V16.7297H51.1755C52.5493 16.7297 53.6671 17.9601 53.6671 19.474Z"/>
<path d="M48.7817 14.5754H37.0365C35.658 14.5754 34.5449 13.3451 34.5449 11.8312V9.86447C34.5449 8.85825 35.0479 7.92978 35.8536 7.44954L46.6953 1.00056C48.2462 0.0812347 50.1509 1.16979 50.3558 3.09533L51.2593 11.511C51.4363 13.1438 50.2767 14.5754 48.7817 14.5754Z"/>
<path d="M5.21421 14.5754H16.9595C18.338 14.5754 19.451 13.3451 19.451 11.8312V9.86447C19.451 8.85825 18.9481 7.92978 18.1424 7.44954L7.3006 1.00056C5.74978 0.0812347 3.84502 1.16979 3.64011 3.09533L2.73663 11.511C2.55966 13.1438 3.71928 14.5754 5.21421 14.5754Z"/>
<path d="M8.92125 34.5536H19.451V50.0494H8.92125C7.5474 50.0494 6.42969 48.8237 6.42969 47.3052V37.2978C6.42969 35.7839 7.5474 34.5536 8.92125 34.5536Z"/>
<path d="M47.5662 37.2978V47.3052C47.5662 48.8237 46.4485 50.0494 45.0747 50.0494H34.5449V34.5536H45.0747C46.4485 34.5536 47.5662 35.7839 47.5662 37.2978Z"/>
<path d="M29.4171 7.61877H24.7274C23.1841 7.61877 21.9331 8.84742 21.9331 10.363V11.8266C21.9331 13.3422 23.1841 14.5709 24.7274 14.5709H29.4171C30.9603 14.5709 32.2114 13.3422 32.2114 11.8266V10.363C32.2114 8.84742 30.9603 7.61877 29.4171 7.61877Z"/>
<path d="M32.2114 16.7343H21.9331V50.054H32.2114V16.7343Z"/>
</svg>
