<svg width="24" height="24" viewBox="0 0 24 24" xmlns="http://www.w3.org/2000/svg">
  <path fill-rule="evenodd" clip-rule="evenodd" d="M9.39474 4C9.39474 3.72386 9.61859 3.5 9.89474 3.5H14.1053C14.3814 3.5 14.6053 3.72386 14.6053 4C14.6053 4.27614 14.3814 4.5 14.1053 4.5H9.89474C9.61859 4.5 9.39474 4.27614 9.39474 4ZM3 6.44335C3 5.89107 3.44772 5.44335 4 5.44335H20C20.5523 5.44335 21 5.89107 21 6.44335V7.38917C21 7.94145 20.5523 8.38917 20 8.38917H18.8947V18.1084C18.8947 19.593 17.799 21 16.2105 21H7.78947C6.201 21 5.10526 19.593 5.10526 18.1084V8.38917H4C3.44772 8.38917 3 7.94145 3 7.38917V6.44335ZM6.10526 18.1084C6.10526 19.1531 6.85931 20 7.78947 20H16.2105C17.1407 20 17.8947 19.1531 17.8947 18.1084V7.38917H20V6.44335H4V7.38917H6.10526V18.1084ZM8.21053 9.28079V17.6355H9.05263V9.28079H8.21053ZM12.4211 17.6355H11.5789V9.28079H12.4211V17.6355ZM14.9474 9.28079V17.6355H15.7895V9.28079H14.9474Z"/>
</svg>
