<svg width="24" height="24" viewBox="0 0 24 24" fill="none" xmlns="http://www.w3.org/2000/svg" fill-rule="evenodd" >
<path d="m 18.0992,4.72564 c -0.9763,-0.97631 -2.5593,-0.97631 -3.5356,0 L 4.99812,14.2912 c -0.38249,0.3824 -0.63061,0.8787 -0.70711,1.4142 l -0.5416,3.7912 c -0.066,0.462 0.32998,0.8579 0.79196,0.7919 L 8.33259,19.7469 C 8.86808,19.6704 9.36431,19.4223 9.7468,19.0398 l 9.5655,-9.56548 c 0.9763,-0.97631 0.9763,-2.55922 0,-3.53553 z m -2.8285,0.70711 c 0.5858,-0.58579 1.5356,-0.58579 2.1214,0 l 1.2131,1.21315 c 0.5858,0.58578 0.5858,1.53553 0,2.12132 L 17.005,10.3674 13.6705,7.03297 Z M 12.9634,7.74007 5.70523,14.9983 c -0.2295,0.2295 -0.37837,0.5272 -0.42427,0.8485 L 4.79593,19.242 8.19117,18.757 C 8.51246,18.7111 8.8102,18.5622 9.0397,18.3327 l 7.2582,-7.2582 z"/>
<path d="M17.4455 14.5C17.4455 14.2239 17.2217 14 16.9455 14C16.6694 14 16.4455 14.2239 16.4455 14.5V16.6417H14.3037C14.0276 16.6417 13.8037 16.8656 13.8037 17.1417C13.8037 17.4179 14.0276 17.6417 14.3037 17.6417H16.4455V19.7834C16.4455 20.0596 16.6694 20.2834 16.9455 20.2834C17.2217 20.2834 17.4455 20.0596 17.4455 19.7834V17.6417H19.5871C19.8633 17.6417 20.0871 17.4179 20.0871 17.1417C20.0871 16.8656 19.8633 16.6417 19.5871 16.6417H17.4455V14.5Z"/>
</svg>
