<svg width="25" height="24" viewBox="0 0 25 24" xmlns="http://www.w3.org/2000/svg">
<path fill-rule="evenodd" clip-rule="evenodd" d="M18.5987 4.72564C17.6224 3.74933 16.0395 3.74933 15.0631 4.72564L5.49763 14.2912C5.11514 14.6736 4.86702 15.1699 4.79052 15.7054L4.24892 19.4966C4.18293 19.9586 4.57891 20.3545 5.04088 20.2885L8.8321 19.7469C9.36759 19.6704 9.86382 19.4223 10.2463 19.0398L19.8118 9.47432C20.7881 8.49801 20.7881 6.9151 19.8118 5.93879L18.5987 4.72564ZM13.3263 7.60343L16.8142 11.0913L17.5213 10.3842L14.0334 6.89632L13.3263 7.60343Z"/>
<path fill-rule="evenodd" clip-rule="evenodd" d="M17.9455 14.5C17.9455 14.2239 17.7217 14 17.4455 14C17.1694 14 16.9455 14.2239 16.9455 14.5V16.6417H14.8037C14.5276 16.6417 14.3037 16.8656 14.3037 17.1417C14.3037 17.4179 14.5276 17.6417 14.8037 17.6417H16.9455V19.7834C16.9455 20.0596 17.1694 20.2834 17.4455 20.2834C17.7217 20.2834 17.9455 20.0596 17.9455 19.7834V17.6417H20.0871C20.3633 17.6417 20.5871 17.4179 20.5871 17.1417C20.5871 16.8656 20.3633 16.6417 20.0871 16.6417H17.9455V14.5Z"/>
</svg>
