<svg width="54" height="54" viewBox="0 0 54 54" xmlns="http://www.w3.org/2000/svg">
<path fill-rule="evenodd" clip-rule="evenodd" d="M40.3335 3.66665H13.6668C8.14398 3.66665 3.66683 8.1438 3.66683 13.6666V36.3097L15.0042 24.9724C17.0298 22.9468 20.3398 23.0339 22.2562 25.1632L32.4282 36.4654C33.0903 37.2011 34.2438 37.2011 34.9058 36.4654L38.4112 32.5706C40.3275 30.4413 43.6376 30.3543 45.6632 32.3799L50.3335 37.0502V13.6666C50.3335 8.1438 45.8563 3.66665 40.3335 3.66665ZM50.2443 41.675L43.3062 34.7369C42.631 34.0617 41.5276 34.0907 40.8888 34.8005L37.3835 38.6953C35.3973 40.9022 31.9368 40.9022 29.9505 38.6953L19.7785 27.3931C19.1397 26.6833 18.0364 26.6543 17.3612 27.3295L3.68881 41.0017C4.03271 46.2129 8.36858 50.3333 13.6668 50.3333H40.3335C45.4014 50.3333 49.5888 46.5634 50.2443 41.675ZM13.6668 0.333313C6.30303 0.333313 0.333496 6.30285 0.333496 13.6666V40.3333C0.333496 47.6971 6.30303 53.6666 13.6668 53.6666H40.3335C47.6973 53.6666 53.6668 47.6971 53.6668 40.3333V13.6666C53.6668 6.30285 47.6973 0.333313 40.3335 0.333313H13.6668ZM35.3335 15.3333C33.4925 15.3333 32.0002 16.8257 32.0002 18.6666C32.0002 20.5076 33.4925 22 35.3335 22C37.1744 22 38.6668 20.5076 38.6668 18.6666C38.6668 16.8257 37.1744 15.3333 35.3335 15.3333ZM28.6668 18.6666C28.6668 14.9847 31.6516 12 35.3335 12C39.0154 12 42.0002 14.9847 42.0002 18.6666C42.0002 22.3485 39.0154 25.3333 35.3335 25.3333C31.6516 25.3333 28.6668 22.3485 28.6668 18.6666Z"/>
</svg>
