<svg width="72" height="72" viewBox="0 0 72 72" fill="none" xmlns="http://www.w3.org/2000/svg">
<rect width="72" height="72" rx="36" fill="#FFDCCD"/>
<path d="M36.3338 59.497C17.5532 59.497 12.6989 52.7896 11.8652 43.4145C11.6606 41.1067 11.6985 38.6397 11.8311 36.0705C12.0395 32.0915 12.8884 28.4309 14.4307 25.2591C13.9911 21.9244 13.7941 13.1139 16.7877 12.5682C19.4404 12.0869 22.7827 14.4856 24.2833 15.7096C27.2581 14.3757 30.7898 13.5762 34.9279 13.4322C35.3903 13.4132 35.8564 13.4056 36.3338 13.4056C41.0669 13.4056 45.0496 14.2469 48.3389 15.7437C49.8206 14.5311 53.2008 12.0831 55.8762 12.5682C58.9229 13.1214 58.669 22.2237 58.2105 25.4221C59.7414 28.5749 60.5978 32.1901 60.8366 36.0705C61.621 48.841 59.7301 59.497 36.3338 59.497Z" fill="white"/>
<path d="M36.3452 21.2688C36.3452 33.5581 26.3827 43.5244 14.0896 43.5244C13.3393 43.5244 12.5966 43.4865 11.8652 43.4145C11.6606 41.1067 11.6985 38.6397 11.8311 36.0705C12.0395 32.0915 12.8884 28.4309 14.4307 25.2591C13.9911 21.9244 13.7941 13.1139 16.7877 12.5682C19.4404 12.0869 22.7827 14.4856 24.2833 15.7096C27.2581 14.3757 30.7898 13.5762 34.9279 13.4322C35.845 15.8688 36.3452 18.5101 36.3452 21.2688Z" fill="#FF8E5D"/>
<path d="M32.7523 37.2073C32.6576 36.908 32.3393 36.7412 32.0399 36.836L25.9881 38.6132C25.6887 38.7004 25.5144 39.0187 25.6016 39.3181C25.6736 39.5644 25.9009 39.7273 26.1473 39.7273C26.2003 39.7273 26.2534 39.7197 26.3064 39.7046L28.4702 39.068C28.5346 40.3677 29.6033 41.3947 30.9144 41.3947C32.2256 41.3947 33.3662 40.2995 33.3662 38.9429C33.3094 37.9538 32.7637 37.2528 32.7485 37.2035L32.7523 37.2073Z" fill="#6A6664"/>
<path d="M40.5172 37.2073C40.612 36.908 40.9303 36.7412 41.2296 36.836L47.2814 38.6132C47.5808 38.7004 47.7551 39.0187 47.668 39.3181C47.596 39.5644 47.3686 39.7273 47.1223 39.7273C47.0692 39.7273 47.0162 39.7197 46.9631 39.7046L44.7993 39.068C44.7349 40.3677 43.6663 41.3947 42.3551 41.3947C41.0439 41.3947 39.9033 40.2995 39.9033 38.9429C39.9602 37.9538 40.5058 37.2528 40.521 37.2035L40.5172 37.2073Z" fill="#6A6664"/>
<path fill-rule="evenodd" clip-rule="evenodd" d="M20.6632 45.3516C20.9754 45.3186 21.2017 45.0388 21.1688 44.7266C21.1358 44.4144 20.856 44.1881 20.5438 44.221L8.84569 45.4564C8.53349 45.4894 8.30713 45.7692 8.3401 46.0814C8.37307 46.3936 8.65288 46.6199 8.96508 46.5869L20.6632 45.3516ZM20.8079 49.5457C21.1009 49.4328 21.2468 49.1038 21.1339 48.8109C21.0209 48.518 20.6919 48.3721 20.399 48.485L11.5127 51.9107C11.2198 52.0236 11.0739 52.3526 11.1868 52.6455C11.2997 52.9384 11.6287 53.0843 11.9216 52.9714L20.8079 49.5457ZM51.0588 44.7266C51.0918 44.4144 51.3716 44.1881 51.6838 44.221L63.3819 45.4564C63.6941 45.4894 63.9205 45.7692 63.8875 46.0814C63.8545 46.3936 63.5747 46.6199 63.2625 46.5869L51.5644 45.3516C51.2522 45.3186 51.0259 45.0388 51.0588 44.7266ZM51.8286 48.485C51.5357 48.3721 51.2067 48.518 51.0938 48.8109C50.9808 49.1038 51.1267 49.4328 51.4197 49.5457L60.306 52.9714C60.5989 53.0843 60.9279 52.9384 61.0408 52.6455C61.1537 52.3526 61.0078 52.0236 60.7149 51.9107L51.8286 48.485Z" fill="#6A6664"/>
<path fill-rule="evenodd" clip-rule="evenodd" d="M36.0003 41.8751C36.2027 41.7205 36.4833 41.7195 36.6869 41.8727L40.0065 44.3699C40.2573 44.5587 40.3077 44.915 40.119 45.1659C39.9303 45.4168 39.5739 45.4671 39.323 45.2784L36.3477 43.0401L33.3743 45.3101C33.1248 45.5006 32.7681 45.4527 32.5776 45.2032C32.3871 44.9537 32.4349 44.597 32.6845 44.4065L36.0003 41.8751Z" fill="#6A6664"/>
</svg>
