<svg width="24" height="24" viewBox="0 0 24 24" fill="none" xmlns="http://www.w3.org/2000/svg">
<path fill-rule="evenodd" clip-rule="evenodd" d="M12.72 5.07548C12.5467 4.30817 11.4533 4.30817 11.28 5.07549L11.0642 6.03077C10.7997 7.20181 9.45589 7.75844 8.4408 7.11743L7.61273 6.59453C6.9476 6.17451 6.17451 6.9476 6.59453 7.61273L7.11743 8.4408C7.75844 9.45589 7.2018 10.7997 6.03077 11.0642L5.07548 11.28C4.30817 11.4533 4.30817 12.5467 5.07549 12.72L6.03077 12.9358C7.20181 13.2003 7.75844 14.5441 7.11743 15.5592L6.59453 16.3873C6.17451 17.0524 6.9476 17.8255 7.61273 17.4055L8.4408 16.8826C9.45589 16.2416 10.7997 16.7982 11.0642 17.9692L11.28 18.9245C11.4533 19.6918 12.5467 19.6918 12.72 18.9245L12.9358 17.9692C13.2003 16.7982 14.5441 16.2416 15.5592 16.8826L16.3873 17.4055C17.0524 17.8255 17.8255 17.0524 17.4055 16.3873L16.8826 15.5592C16.2416 14.5441 16.7982 13.2003 17.9692 12.9358L18.9245 12.72C19.6918 12.5467 19.6918 11.4533 18.9245 11.28L17.9692 11.0642C16.7982 10.7997 16.2416 9.45589 16.8826 8.4408L17.4055 7.61273C17.8255 6.9476 17.0524 6.17451 16.3873 6.59453L15.5592 7.11743C14.5441 7.75844 13.2003 7.2018 12.9358 6.03077L12.72 5.07548ZM10.3046 4.85515C10.7127 3.04829 13.2873 3.04828 13.6954 4.85515L13.9112 5.81044C14.0235 6.30773 14.5942 6.54412 15.0253 6.2719L15.8533 5.749C17.4196 4.75995 19.2401 6.5804 18.251 8.14666L17.7281 8.97473C17.4559 9.4058 17.6923 9.97648 18.1896 10.0888L19.1448 10.3046C20.9517 10.7127 20.9517 13.2873 19.1448 13.6954L18.1896 13.9112C17.6923 14.0235 17.4559 14.5942 17.7281 15.0253L18.251 15.8533C19.24 17.4196 17.4196 19.2401 15.8533 18.251L15.0253 17.7281C14.5942 17.4559 14.0235 17.6923 13.9112 18.1896L13.6954 19.1448C13.2873 20.9517 10.7127 20.9517 10.3046 19.1448L10.0888 18.1896C9.97648 17.6923 9.4058 17.4559 8.97473 17.7281L8.14666 18.251C6.58041 19.24 4.75995 17.4196 5.749 15.8533L6.2719 15.0253C6.54412 14.5942 6.30773 14.0235 5.81044 13.9112L4.85515 13.6954C3.04829 13.2873 3.04828 10.7127 4.85515 10.3046L5.81044 10.0888C6.30773 9.97648 6.54412 9.4058 6.2719 8.97473L5.749 8.14666C4.75995 6.58041 6.5804 4.75995 8.14666 5.749L8.97473 6.2719C9.4058 6.54412 9.97648 6.30773 10.0888 5.81044L10.3046 4.85515ZM12 9.5C10.6193 9.5 9.5 10.6193 9.5 12C9.5 13.3807 10.6193 14.5 12 14.5C13.3807 14.5 14.5 13.3807 14.5 12C14.5 10.6193 13.3807 9.5 12 9.5ZM8.5 12C8.5 10.067 10.067 8.5 12 8.5C13.933 8.5 15.5 10.067 15.5 12C15.5 13.933 13.933 15.5 12 15.5C10.067 15.5 8.5 13.933 8.5 12Z" fill="#191919"/>
</svg>
