<svg width="58" height="14" viewBox="0 0 58 14" xmlns="http://www.w3.org/2000/svg">
<path d="M11.3452 0.927446H0.903005C0.404268 0.927446 0 1.33307 0 1.83193C0 2.33079 0.404268 2.73641 0.903005 2.73641H5.7188L0.827986 11.5231C0.584869 11.9593 0.741159 12.5104 1.17668 12.7532C1.31561 12.8311 1.46704 12.868 1.61568 12.868C1.93243 12.868 2.24015 12.7003 2.40547 12.4039L4.95333 7.82587C5.05613 7.86692 5.16797 7.88987 5.28466 7.88987C7.09484 7.88987 8.38822 8.19462 9.8233 12.2648C9.95459 12.6363 10.3026 12.8687 10.6749 12.8687C10.7749 12.8687 10.8763 12.852 10.9757 12.8165C11.4459 12.6502 11.6925 12.1333 11.5265 11.6623C10.7471 9.45045 9.94972 8.08329 8.94114 7.22752C8.37988 6.75162 7.53523 6.2131 5.9126 6.10109L7.63664 3.00289C7.68457 2.91731 7.71583 2.82686 7.73389 2.73572H11.3438C11.8426 2.73572 12.2468 2.33079 12.2468 1.83123C12.2468 1.33168 11.8426 0.92675 11.3438 0.92675L11.3452 0.927446Z"/>
<path d="M15.0559 0.509987C14.5571 0.509987 14.1529 0.914917 14.1529 1.41447V12.6774C14.1529 13.1769 14.5571 13.5819 15.0559 13.5819C15.5546 13.5819 15.9589 13.1769 15.9589 12.6774V1.41447C15.9589 0.914917 15.5546 0.509987 15.0559 0.509987Z"/>
<path d="M28.5607 1.50492C27.5222 0.620616 26.0795 0.153069 24.3874 0.153069C23.8185 0.153069 22.5605 0.228906 21.3512 0.368753C19.616 0.569826 18.8735 0.786902 18.4859 0.973365C18.1525 1.0826 17.9038 1.38108 17.8684 1.74218C17.8607 1.8034 17.8587 1.86532 17.8635 1.92725V13.0962C17.8635 13.5958 18.2678 14.0007 18.7665 14.0007C19.2653 14.0007 19.6695 13.5958 19.6695 13.0962V9.87765C20.9914 10.2687 23.2843 10.4899 24.2207 10.4899C24.2353 10.4899 24.2498 10.4899 24.2637 10.4899C25.8419 10.4774 27.3089 9.97993 28.3953 9.08797C29.5692 8.12434 30.2159 6.76832 30.2159 5.26966C30.2159 3.771 29.6429 2.42889 28.56 1.50631L28.5607 1.50492ZM24.2505 8.67956C23.0836 8.6893 20.4503 8.3282 19.8737 8.03181C19.8078 7.99772 19.7397 7.97406 19.6709 7.95736V2.46994C20.726 2.20903 23.21 1.96203 24.3881 1.96203C26.9075 1.96203 28.4113 3.19839 28.4113 5.26896C28.4113 7.48773 26.3184 8.66425 24.2512 8.68025L24.2505 8.67956Z"/>
<path d="M42.3655 4.27194C43.008 4.35265 43.529 3.74943 43.3484 3.12673C43.2213 2.6891 42.9886 2.19024 42.569 1.71365C41.5674 0.576782 39.8878 0 37.5775 0C35.2672 0 33.6397 0.580956 32.7437 1.72756C31.9059 2.79903 32.0094 3.96859 32.0796 4.37839C32.0824 4.72766 32.1734 5.53891 32.8659 6.30285C33.7849 7.31657 35.37 7.83073 37.5775 7.83073C39.785 7.83073 40.8457 8.33098 41.2576 8.74983C41.6535 9.15267 41.6869 9.64457 41.6869 10.0745C41.6869 10.8058 40.8214 12.0435 37.5782 12.0435C35.3825 12.0435 34.4524 11.4201 34.0732 10.9929C33.8655 10.7592 33.5515 10.6513 33.2445 10.7056C32.5512 10.8287 32.2581 11.6643 32.7242 12.1924C32.8242 12.3058 32.9395 12.4213 33.0708 12.5361C34.0739 13.4093 35.5902 13.8518 37.5775 13.8518C39.5648 13.8518 41.1222 13.4323 42.1669 12.605C43.363 11.6574 43.4922 10.5198 43.4922 10.0745C43.4922 9.62926 43.4922 8.44648 42.5447 7.48146C41.5799 6.49906 39.9552 6.02177 37.5775 6.02177C35.5339 6.02177 34.6323 5.53265 34.2364 5.12285C33.9169 4.79237 33.8877 4.45979 33.8856 4.37909L33.9141 4.27194L33.8634 4.08757C33.8481 4.01034 33.7397 3.37163 34.1801 2.82477C34.7157 2.16032 35.8903 1.80897 37.5782 1.80897C39.2661 1.80897 40.5519 2.18119 41.193 2.886C41.4229 3.13855 41.5466 3.40642 41.6126 3.63324C41.7133 3.97764 42.0106 4.22672 42.3655 4.27194Z"/>
<path d="M57.9958 12.4707C57.9847 12.3545 57.7152 9.59517 56.8803 6.78779C56.3767 5.09432 55.7682 3.73134 55.0715 2.7378C54.0914 1.34003 52.9217 0.63105 51.5956 0.63105C50.2696 0.63105 49.0999 1.34003 48.1198 2.7378C47.423 3.73203 46.8139 5.09432 46.311 6.78779C45.476 9.59517 45.2065 12.3545 45.1954 12.4707C45.1482 12.9682 45.5122 13.4093 46.0081 13.4573C46.5041 13.5046 46.9452 13.14 46.9931 12.6426C46.9959 12.6161 47.2563 9.94444 48.0413 7.30404C48.581 5.48743 49.7611 2.44002 51.5956 2.44002C53.4301 2.44002 54.604 5.47421 55.1437 7.28248C55.9314 9.92287 56.1961 12.6161 56.1989 12.6426C56.2433 13.1108 56.6365 13.4608 57.097 13.4608C57.1255 13.4608 57.1547 13.4594 57.1838 13.4566C57.6805 13.4093 58.0445 12.9675 57.9965 12.47L57.9958 12.4707Z"/>
<path d="M53.528 6.69387H49.6611C49.1624 6.69387 48.7581 7.0988 48.7581 7.59835C48.7581 8.09791 49.1624 8.50284 49.6611 8.50284H53.528C54.0268 8.50284 54.431 8.09791 54.431 7.59835C54.431 7.0988 54.0268 6.69387 53.528 6.69387Z"/>
</svg>
