<svg width="32" height="32" viewBox="0 0 32 32" fill="none" xmlns="http://www.w3.org/2000/svg">
<circle cx="16" cy="16" r="15.5" fill="#F7F7F7" stroke="#D9D9D9"/>
<path fill-rule="evenodd" clip-rule="evenodd" d="M14 7.5H13.5V8.5H14H18H18.5V7.5H18H14ZM6.5 9.5H7H25H25.5V10.5H25H23V23C23 24.1046 22.1046 25 21 25H11C9.89543 25 9 24.1046 9 23V10.5H7H6.5V9.5ZM12.5 13V12.5H11.5V13V22V22.5H12.5V22V13ZM16.5 12.5V13V22V22.5H15.5V22V13V12.5H16.5ZM20.5 13V12.5H19.5V13V22V22.5H20.5V22V13Z" fill="#D9D9D9"/>
</svg>
